<svg width="65" height="65" viewBox="0 0 65 65" fill="none" xmlns="http://www.w3.org/2000/svg">
<path fill-rule="evenodd" clip-rule="evenodd" d="M32.6 64.4167C24.0133 57.11 17.6005 50.3228 13.3616 44.0551C9.12053 37.7895 7 31.99 7 26.6567C7 18.6567 9.57387 12.2833 14.7216 7.53666C19.8672 2.79 25.8267 0.416664 32.6 0.416664C39.3733 0.416664 45.3328 2.79 50.4784 7.53666C55.6261 12.2833 58.2 18.6567 58.2 26.6567C58.2 31.99 56.0805 37.7895 51.8416 44.0551C47.6005 50.3228 41.1867 57.11 32.6 64.4167ZM31.1666 20.4331C31.3746 20.2252 31.4914 19.9432 31.4914 19.6491C31.4914 19.3551 31.3746 19.0731 31.1666 18.8652C30.9587 18.6573 30.6768 18.5405 30.3827 18.5405H28.1655C27.8714 18.5405 27.5895 18.6573 27.3816 18.8652C27.1736 19.0731 27.0568 19.3551 27.0568 19.6491C27.0568 19.9432 27.1736 20.2252 27.3816 20.4331C27.5895 20.641 27.8714 20.7578 28.1655 20.7578H30.3827C30.6768 20.7578 30.9587 20.641 31.1666 20.4331ZM39.0578 41.503L38.5866 38.1771C40.786 37.0688 42.6346 35.3718 43.9264 33.2749C45.2183 31.1781 45.9028 28.7638 45.9035 26.3009C45.9035 26.0069 45.7867 25.7249 45.5788 25.517C45.3709 25.3091 45.0889 25.1923 44.7949 25.1923H42.5777V16.3233C42.5777 15.7352 42.3441 15.1712 41.9282 14.7554C41.5124 14.3396 40.9484 14.106 40.3604 14.106H24.8396C24.2515 14.106 23.6876 14.3396 23.2717 14.7554C22.8559 15.1712 22.6223 15.7352 22.6223 16.3233V25.1923H20.4051C20.111 25.1923 19.8291 25.3091 19.6211 25.517C19.4132 25.7249 19.2964 26.0069 19.2964 26.3009C19.2972 28.7638 19.9817 31.1781 21.2735 33.2749C22.5654 35.3718 24.414 37.0688 26.6134 38.1771L26.1422 41.503C26.0942 41.8178 26.1149 42.1393 26.203 42.4453C26.2911 42.7513 26.4445 43.0345 26.6526 43.2756C26.8607 43.5166 27.1186 43.7097 27.4084 43.8415C27.6983 43.9732 28.0133 44.0406 28.3318 44.039H36.8682C37.1866 44.0406 37.5017 43.9732 37.7915 43.8415C38.0814 43.7097 38.3393 43.5166 38.5474 43.2756C38.7555 43.0345 38.9089 42.7513 38.997 42.4453C39.0851 42.1393 39.1058 41.8178 39.0578 41.503ZM40.3604 25.1923H24.8396V16.3233H40.3604V25.1923ZM28.3318 41.8217L28.7336 39.0363C31.2556 39.7937 33.9444 39.7937 36.4663 39.0363L36.8682 41.8217H28.3318ZM21.5691 27.4096H43.6309C43.3563 30.1444 42.0757 32.6797 40.0374 34.5237C37.9991 36.3676 35.3486 37.3886 32.6 37.3886C29.8514 37.3886 27.2008 36.3676 25.1626 34.5237C23.1243 32.6797 21.8436 30.1444 21.5691 27.4096Z" fill="#003049"/>
</svg>
